{
	"asset":{
		"generator":"Khronos glTF Blender I/O v3.6.27",
		"version":"2.0"
	},
	"scene":0,
	"scenes":[
		{
			"name":"Scene",
			"nodes":[
				0
			]
		}
	],
	"nodes":[
		{
			"mesh":0,
			"name":"pisa-tower-top"
		}
	],
	"meshes":[
		{
			"name":"pisa-tower-top",
			"primitives":[
				{
					"attributes":{
						"POSITION":0,
						"NORMAL":1
					},
					"indices":2
				}
			]
		}
	],
	"accessors":[
		{
			"bufferView":0,
			"componentType":5126,
			"count":201416,
			"max":[
				16.79383659362793,
				16.799999237060547,
				-11
			],
			"min":[
				0.006163492798805237,
				0,
				-57.599998474121094
			],
			"type":"VEC3"
		},
		{
			"bufferView":1,
			"componentType":5126,
			"count":201416,
			"type":"VEC3"
		},
		{
			"bufferView":2,
			"componentType":5125,
			"count":278466,
			"type":"SCALAR"
		}
	],
	"bufferViews":[
		{
			"buffer":0,
			"byteLength":2416992,
			"byteOffset":0,
			"target":34962
		},
		{
			"buffer":0,
			"byteLength":2416992,
			"byteOffset":2416992,
			"target":34962
		},
		{
			"buffer":0,
			"byteLength":1113864,
			"byteOffset":4833984,
			"target":34963
		}
	],
	"buffers":[
		{
			"byteLength":5947848,
			"uri":"pisa.bin"
		}
	]
}
